<svg xmlns="http://www.w3.org/2000/svg" width="800" height="1000" viewBox="0 0 800 1000" role="img" aria-label="Kingdom Worship Night">
<defs><linearGradient id="bg" x1="0" y1="0" x2="1" y2="1"><stop offset="0" stop-color="#11161d"/><stop offset="1" stop-color="#0D1117"/></linearGradient><linearGradient id="ac" x1="0" y1="0" x2="1" y2="1"><stop offset="0" stop-color="#E63946"/><stop offset="1" stop-color="#8B0000"/></linearGradient>
<radialGradient id="glow" cx="0.5" cy="0.32" r="0.7"><stop offset="0" stop-color="#E63946" stop-opacity="0.35"/><stop offset="1" stop-color="#E63946" stop-opacity="0"/></radialGradient></defs>
<rect width="800" height="1000" fill="url(#bg)"/>
<rect width="800" height="1000" fill="url(#glow)"/>
<line x1="400.0" y1="340.0" x2="1300.0" y2="340.0" stroke="#E63946" stroke-width="2" stroke-opacity="0.06"/><line x1="400.0" y1="340.0" x2="1263.5" y2="593.6" stroke="#E63946" stroke-width="2" stroke-opacity="0.06"/><line x1="400.0" y1="340.0" x2="1157.1" y2="826.6" stroke="#E63946" stroke-width="2" stroke-opacity="0.06"/><line x1="400.0" y1="340.0" x2="989.4" y2="1020.2" stroke="#E63946" stroke-width="2" stroke-opacity="0.06"/><line x1="400.0" y1="340.0" x2="773.9" y2="1158.7" stroke="#E63946" stroke-width="2" stroke-opacity="0.06"/><line x1="400.0" y1="340.0" x2="528.1" y2="1230.8" stroke="#E63946" stroke-width="2" stroke-opacity="0.06"/><line x1="400.0" y1="340.0" x2="271.9" y2="1230.8" stroke="#E63946" stroke-width="2" stroke-opacity="0.06"/><line x1="400.0" y1="340.0" x2="26.1" y2="1158.7" stroke="#E63946" stroke-width="2" stroke-opacity="0.06"/><line x1="400.0" y1="340.0" x2="-189.4" y2="1020.2" stroke="#E63946" stroke-width="2" stroke-opacity="0.06"/><line x1="400.0" y1="340.0" x2="-357.1" y2="826.6" stroke="#E63946" stroke-width="2" stroke-opacity="0.06"/><line x1="400.0" y1="340.0" x2="-463.5" y2="593.6" stroke="#E63946" stroke-width="2" stroke-opacity="0.06"/><line x1="400.0" y1="340.0" x2="-500.0" y2="340.0" stroke="#E63946" stroke-width="2" stroke-opacity="0.06"/><line x1="400.0" y1="340.0" x2="-463.5" y2="86.4" stroke="#E63946" stroke-width="2" stroke-opacity="0.06"/><line x1="400.0" y1="340.0" x2="-357.1" y2="-146.6" stroke="#E63946" stroke-width="2" stroke-opacity="0.06"/><line x1="400.0" y1="340.0" x2="-189.4" y2="-340.2" stroke="#E63946" stroke-width="2" stroke-opacity="0.06"/><line x1="400.0" y1="340.0" x2="26.1" y2="-478.7" stroke="#E63946" stroke-width="2" stroke-opacity="0.06"/><line x1="400.0" y1="340.0" x2="271.9" y2="-550.8" stroke="#E63946" stroke-width="2" stroke-opacity="0.06"/><line x1="400.0" y1="340.0" x2="528.1" y2="-550.8" stroke="#E63946" stroke-width="2" stroke-opacity="0.06"/><line x1="400.0" y1="340.0" x2="773.9" y2="-478.7" stroke="#E63946" stroke-width="2" stroke-opacity="0.06"/><line x1="400.0" y1="340.0" x2="989.4" y2="-340.2" stroke="#E63946" stroke-width="2" stroke-opacity="0.06"/><line x1="400.0" y1="340.0" x2="1157.1" y2="-146.6" stroke="#E63946" stroke-width="2" stroke-opacity="0.06"/><line x1="400.0" y1="340.0" x2="1263.5" y2="86.4" stroke="#E63946" stroke-width="2" stroke-opacity="0.06"/>
<circle cx="198.8" cy="903.5" r="0.7" fill="#FFFFFF" fill-opacity="0.25"/><circle cx="324.8" cy="237.7" r="0.7" fill="#FFFFFF" fill-opacity="0.33"/><circle cx="9.9" cy="550.9" r="2.3" fill="#FFFFFF" fill-opacity="0.13"/><circle cx="159.6" cy="608.1" r="1.5" fill="#FFFFFF" fill-opacity="0.29"/><circle cx="650.7" cy="174.6" r="1.2" fill="#FFFFFF" fill-opacity="0.18"/><circle cx="38.8" cy="889.4" r="2.0" fill="#FFFFFF" fill-opacity="0.31"/><circle cx="5.1" cy="844.4" r="1.9" fill="#FFFFFF" fill-opacity="0.23"/><circle cx="593.4" cy="452.5" r="1.0" fill="#FFFFFF" fill-opacity="0.11"/><circle cx="185.8" cy="38.8" r="1.2" fill="#FFFFFF" fill-opacity="0.32"/><circle cx="556.1" cy="845.3" r="1.9" fill="#FFFFFF" fill-opacity="0.17"/><circle cx="443.0" cy="436.1" r="2.0" fill="#FFFFFF" fill-opacity="0.25"/><circle cx="212.2" cy="642.0" r="2.3" fill="#FFFFFF" fill-opacity="0.15"/><circle cx="704.0" cy="15.2" r="1.1" fill="#FFFFFF" fill-opacity="0.16"/><circle cx="595.1" cy="944.7" r="1.9" fill="#FFFFFF" fill-opacity="0.18"/><circle cx="704.1" cy="328.6" r="1.0" fill="#FFFFFF" fill-opacity="0.37"/><circle cx="504.6" cy="692.8" r="1.8" fill="#FFFFFF" fill-opacity="0.39"/><circle cx="375.6" cy="839.7" r="1.9" fill="#FFFFFF" fill-opacity="0.35"/><circle cx="349.8" cy="724.6" r="1.6" fill="#FFFFFF" fill-opacity="0.18"/><circle cx="169.6" cy="622.6" r="0.7" fill="#FFFFFF" fill-opacity="0.37"/><circle cx="115.7" cy="26.9" r="0.8" fill="#FFFFFF" fill-opacity="0.38"/><circle cx="275.9" cy="141.8" r="0.7" fill="#FFFFFF" fill-opacity="0.09"/><circle cx="554.1" cy="633.9" r="1.9" fill="#FFFFFF" fill-opacity="0.32"/><circle cx="52.6" cy="590.5" r="1.3" fill="#FFFFFF" fill-opacity="0.34"/><circle cx="655.7" cy="891.3" r="0.7" fill="#FFFFFF" fill-opacity="0.36"/><circle cx="731.5" cy="944.3" r="0.8" fill="#FFFFFF" fill-opacity="0.15"/><circle cx="89.6" cy="34.4" r="2.1" fill="#FFFFFF" fill-opacity="0.34"/><circle cx="507.3" cy="825.1" r="1.7" fill="#FFFFFF" fill-opacity="0.17"/><circle cx="79.9" cy="97.9" r="2.0" fill="#FFFFFF" fill-opacity="0.15"/><circle cx="255.3" cy="423.8" r="0.6" fill="#FFFFFF" fill-opacity="0.16"/><circle cx="226.1" cy="715.8" r="1.3" fill="#FFFFFF" fill-opacity="0.18"/><circle cx="771.2" cy="503.7" r="2.1" fill="#FFFFFF" fill-opacity="0.28"/><circle cx="24.8" cy="412.9" r="1.4" fill="#FFFFFF" fill-opacity="0.33"/><circle cx="277.4" cy="704.7" r="1.6" fill="#FFFFFF" fill-opacity="0.15"/><circle cx="689.8" cy="90.9" r="2.1" fill="#FFFFFF" fill-opacity="0.13"/><circle cx="1.0" cy="202.0" r="2.0" fill="#FFFFFF" fill-opacity="0.39"/><circle cx="3.5" cy="490.8" r="1.5" fill="#FFFFFF" fill-opacity="0.33"/><circle cx="147.6" cy="494.6" r="1.2" fill="#FFFFFF" fill-opacity="0.35"/><circle cx="208.5" cy="943.9" r="1.1" fill="#FFFFFF" fill-opacity="0.15"/><circle cx="559.6" cy="498.3" r="0.8" fill="#FFFFFF" fill-opacity="0.28"/><circle cx="64.7" cy="787.9" r="1.9" fill="#FFFFFF" fill-opacity="0.33"/><circle cx="502.3" cy="355.6" r="1.3" fill="#FFFFFF" fill-opacity="0.21"/><circle cx="712.3" cy="86.2" r="2.2" fill="#FFFFFF" fill-opacity="0.09"/><circle cx="164.9" cy="263.2" r="2.2" fill="#FFFFFF" fill-opacity="0.24"/><circle cx="303.4" cy="884.0" r="1.0" fill="#FFFFFF" fill-opacity="0.23"/><circle cx="425.2" cy="754.5" r="2.0" fill="#FFFFFF" fill-opacity="0.29"/><circle cx="278.8" cy="326.7" r="0.9" fill="#FFFFFF" fill-opacity="0.35"/><circle cx="529.7" cy="742.0" r="0.9" fill="#FFFFFF" fill-opacity="0.22"/><circle cx="618.7" cy="579.2" r="0.8" fill="#FFFFFF" fill-opacity="0.23"/><circle cx="708.1" cy="237.9" r="0.9" fill="#FFFFFF" fill-opacity="0.18"/><circle cx="562.5" cy="843.7" r="0.9" fill="#FFFFFF" fill-opacity="0.13"/><circle cx="198.1" cy="326.6" r="1.5" fill="#FFFFFF" fill-opacity="0.13"/><circle cx="262.5" cy="189.3" r="2.4" fill="#FFFFFF" fill-opacity="0.31"/><circle cx="81.4" cy="962.4" r="0.8" fill="#FFFFFF" fill-opacity="0.20"/><circle cx="787.1" cy="794.9" r="1.9" fill="#FFFFFF" fill-opacity="0.22"/><circle cx="157.0" cy="638.0" r="0.8" fill="#FFFFFF" fill-opacity="0.15"/><circle cx="310.7" cy="33.9" r="1.3" fill="#FFFFFF" fill-opacity="0.33"/><circle cx="554.8" cy="500.5" r="1.7" fill="#FFFFFF" fill-opacity="0.23"/><circle cx="113.5" cy="603.7" r="1.3" fill="#FFFFFF" fill-opacity="0.32"/><circle cx="726.4" cy="430.0" r="1.6" fill="#FFFFFF" fill-opacity="0.32"/><circle cx="336.9" cy="228.6" r="1.9" fill="#FFFFFF" fill-opacity="0.36"/><circle cx="619.2" cy="700.1" r="2.1" fill="#FFFFFF" fill-opacity="0.30"/><circle cx="513.2" cy="453.9" r="1.2" fill="#FFFFFF" fill-opacity="0.28"/><circle cx="78.3" cy="419.6" r="2.0" fill="#FFFFFF" fill-opacity="0.31"/><circle cx="503.7" cy="250.1" r="1.4" fill="#FFFFFF" fill-opacity="0.23"/><circle cx="497.3" cy="409.3" r="1.8" fill="#FFFFFF" fill-opacity="0.38"/><circle cx="146.4" cy="654.5" r="2.0" fill="#FFFFFF" fill-opacity="0.20"/><circle cx="391.9" cy="974.6" r="0.7" fill="#FFFFFF" fill-opacity="0.25"/><circle cx="128.7" cy="781.8" r="2.3" fill="#FFFFFF" fill-opacity="0.25"/><circle cx="80.9" cy="574.6" r="1.6" fill="#FFFFFF" fill-opacity="0.31"/><circle cx="409.8" cy="639.3" r="2.1" fill="#FFFFFF" fill-opacity="0.25"/><circle cx="328.3" cy="948.0" r="1.0" fill="#FFFFFF" fill-opacity="0.30"/><circle cx="314.0" cy="762.7" r="0.8" fill="#FFFFFF" fill-opacity="0.40"/><circle cx="284.4" cy="56.6" r="1.1" fill="#FFFFFF" fill-opacity="0.21"/><circle cx="10.6" cy="418.6" r="1.4" fill="#FFFFFF" fill-opacity="0.30"/><circle cx="281.7" cy="265.2" r="1.0" fill="#FFFFFF" fill-opacity="0.32"/><circle cx="751.9" cy="527.1" r="1.0" fill="#FFFFFF" fill-opacity="0.34"/><circle cx="313.6" cy="212.0" r="0.8" fill="#FFFFFF" fill-opacity="0.33"/><circle cx="647.7" cy="634.3" r="1.4" fill="#FFFFFF" fill-opacity="0.26"/><circle cx="180.8" cy="963.9" r="1.2" fill="#FFFFFF" fill-opacity="0.28"/><circle cx="655.0" cy="816.2" r="1.4" fill="#FFFFFF" fill-opacity="0.17"/><circle cx="438.6" cy="125.2" r="2.1" fill="#FFFFFF" fill-opacity="0.19"/><circle cx="680.5" cy="267.4" r="1.3" fill="#FFFFFF" fill-opacity="0.16"/><circle cx="340.9" cy="185.9" r="0.6" fill="#FFFFFF" fill-opacity="0.31"/><circle cx="225.0" cy="245.0" r="1.1" fill="#FFFFFF" fill-opacity="0.23"/><circle cx="342.8" cy="637.3" r="1.8" fill="#FFFFFF" fill-opacity="0.20"/><circle cx="743.0" cy="854.4" r="0.7" fill="#FFFFFF" fill-opacity="0.34"/><circle cx="724.6" cy="784.0" r="0.9" fill="#FFFFFF" fill-opacity="0.35"/><circle cx="506.5" cy="15.0" r="0.6" fill="#FFFFFF" fill-opacity="0.38"/><circle cx="524.8" cy="250.0" r="0.8" fill="#FFFFFF" fill-opacity="0.13"/><circle cx="186.9" cy="776.3" r="1.2" fill="#FFFFFF" fill-opacity="0.13"/><circle cx="723.3" cy="791.7" r="0.9" fill="#FFFFFF" fill-opacity="0.37"/><circle cx="486.7" cy="781.3" r="1.8" fill="#FFFFFF" fill-opacity="0.37"/><circle cx="630.5" cy="838.8" r="1.0" fill="#FFFFFF" fill-opacity="0.30"/><circle cx="424.6" cy="741.9" r="1.4" fill="#FFFFFF" fill-opacity="0.36"/><circle cx="444.1" cy="264.5" r="1.0" fill="#FFFFFF" fill-opacity="0.12"/><circle cx="394.5" cy="58.5" r="1.4" fill="#FFFFFF" fill-opacity="0.13"/><circle cx="393.1" cy="498.2" r="1.6" fill="#FFFFFF" fill-opacity="0.36"/><circle cx="5.3" cy="840.8" r="1.4" fill="#FFFFFF" fill-opacity="0.26"/><circle cx="532.2" cy="840.6" r="1.3" fill="#FFFFFF" fill-opacity="0.21"/><circle cx="768.5" cy="75.4" r="1.7" fill="#FFFFFF" fill-opacity="0.28"/><circle cx="22.8" cy="609.7" r="1.8" fill="#FFFFFF" fill-opacity="0.38"/><circle cx="264.4" cy="981.7" r="1.5" fill="#FFFFFF" fill-opacity="0.24"/><circle cx="718.0" cy="33.9" r="1.9" fill="#FFFFFF" fill-opacity="0.28"/><circle cx="270.9" cy="861.7" r="1.3" fill="#FFFFFF" fill-opacity="0.23"/><circle cx="420.4" cy="770.6" r="1.0" fill="#FFFFFF" fill-opacity="0.22"/><circle cx="337.9" cy="554.0" r="2.1" fill="#FFFFFF" fill-opacity="0.17"/>
<g fill="#E63946" fill-opacity="0.85"><rect x="379.5" y="292.0" width="41.0" height="256.0" rx="15.4"/><rect x="323.2" y="375.2" width="153.6" height="41.0" rx="15.4"/></g>
<text x="400.0" y="780.0" text-anchor="middle" font-family="Poppins,Arial,sans-serif" font-weight="700" font-size="90" fill="#FFFFFF" fill-opacity="0.92">Kingdom Worship Night</text>

<rect x="0.5" y="0.5" width="799" height="999" rx="16" fill="none" stroke="#E63946" stroke-opacity="0.18"/>
</svg>