<svg xmlns="http://www.w3.org/2000/svg" width="800" height="500" viewBox="0 0 800 500" role="img" aria-label="The Power of Worship">
<defs><linearGradient id="bg" x1="0" y1="0" x2="1" y2="1"><stop offset="0" stop-color="#11161d"/><stop offset="1" stop-color="#0D1117"/></linearGradient><linearGradient id="ac" x1="0" y1="0" x2="1" y2="1"><stop offset="0" stop-color="#E63946"/><stop offset="1" stop-color="#8B0000"/></linearGradient>
<radialGradient id="glow" cx="0.5" cy="0.32" r="0.7"><stop offset="0" stop-color="#E63946" stop-opacity="0.35"/><stop offset="1" stop-color="#E63946" stop-opacity="0"/></radialGradient></defs>
<rect width="800" height="500" fill="url(#bg)"/>
<rect width="800" height="500" fill="url(#glow)"/>
<line x1="400.0" y1="170.0" x2="1120.0" y2="170.0" stroke="#E63946" stroke-width="2" stroke-opacity="0.06"/><line x1="400.0" y1="170.0" x2="1090.8" y2="372.8" stroke="#E63946" stroke-width="2" stroke-opacity="0.06"/><line x1="400.0" y1="170.0" x2="1005.7" y2="559.3" stroke="#E63946" stroke-width="2" stroke-opacity="0.06"/><line x1="400.0" y1="170.0" x2="871.5" y2="714.1" stroke="#E63946" stroke-width="2" stroke-opacity="0.06"/><line x1="400.0" y1="170.0" x2="699.1" y2="824.9" stroke="#E63946" stroke-width="2" stroke-opacity="0.06"/><line x1="400.0" y1="170.0" x2="502.5" y2="882.7" stroke="#E63946" stroke-width="2" stroke-opacity="0.06"/><line x1="400.0" y1="170.0" x2="297.5" y2="882.7" stroke="#E63946" stroke-width="2" stroke-opacity="0.06"/><line x1="400.0" y1="170.0" x2="100.9" y2="824.9" stroke="#E63946" stroke-width="2" stroke-opacity="0.06"/><line x1="400.0" y1="170.0" x2="-71.5" y2="714.1" stroke="#E63946" stroke-width="2" stroke-opacity="0.06"/><line x1="400.0" y1="170.0" x2="-205.7" y2="559.3" stroke="#E63946" stroke-width="2" stroke-opacity="0.06"/><line x1="400.0" y1="170.0" x2="-290.8" y2="372.8" stroke="#E63946" stroke-width="2" stroke-opacity="0.06"/><line x1="400.0" y1="170.0" x2="-320.0" y2="170.0" stroke="#E63946" stroke-width="2" stroke-opacity="0.06"/><line x1="400.0" y1="170.0" x2="-290.8" y2="-32.8" stroke="#E63946" stroke-width="2" stroke-opacity="0.06"/><line x1="400.0" y1="170.0" x2="-205.7" y2="-219.3" stroke="#E63946" stroke-width="2" stroke-opacity="0.06"/><line x1="400.0" y1="170.0" x2="-71.5" y2="-374.1" stroke="#E63946" stroke-width="2" stroke-opacity="0.06"/><line x1="400.0" y1="170.0" x2="100.9" y2="-484.9" stroke="#E63946" stroke-width="2" stroke-opacity="0.06"/><line x1="400.0" y1="170.0" x2="297.5" y2="-542.7" stroke="#E63946" stroke-width="2" stroke-opacity="0.06"/><line x1="400.0" y1="170.0" x2="502.5" y2="-542.7" stroke="#E63946" stroke-width="2" stroke-opacity="0.06"/><line x1="400.0" y1="170.0" x2="699.1" y2="-484.9" stroke="#E63946" stroke-width="2" stroke-opacity="0.06"/><line x1="400.0" y1="170.0" x2="871.5" y2="-374.1" stroke="#E63946" stroke-width="2" stroke-opacity="0.06"/><line x1="400.0" y1="170.0" x2="1005.7" y2="-219.3" stroke="#E63946" stroke-width="2" stroke-opacity="0.06"/><line x1="400.0" y1="170.0" x2="1090.8" y2="-32.8" stroke="#E63946" stroke-width="2" stroke-opacity="0.06"/>
<circle cx="214.3" cy="64.6" r="1.5" fill="#FFFFFF" fill-opacity="0.16"/><circle cx="87.6" cy="80.7" r="0.7" fill="#FFFFFF" fill-opacity="0.14"/><circle cx="249.6" cy="152.5" r="2.0" fill="#FFFFFF" fill-opacity="0.17"/><circle cx="400.1" cy="88.9" r="1.2" fill="#FFFFFF" fill-opacity="0.09"/><circle cx="200.4" cy="7.7" r="1.9" fill="#FFFFFF" fill-opacity="0.26"/><circle cx="151.6" cy="237.4" r="2.3" fill="#FFFFFF" fill-opacity="0.11"/><circle cx="655.1" cy="216.1" r="1.5" fill="#FFFFFF" fill-opacity="0.35"/><circle cx="314.5" cy="253.3" r="1.8" fill="#FFFFFF" fill-opacity="0.39"/><circle cx="274.2" cy="416.1" r="1.9" fill="#FFFFFF" fill-opacity="0.28"/><circle cx="323.8" cy="173.8" r="0.7" fill="#FFFFFF" fill-opacity="0.12"/><circle cx="56.6" cy="370.4" r="1.1" fill="#FFFFFF" fill-opacity="0.13"/><circle cx="67.6" cy="420.6" r="2.2" fill="#FFFFFF" fill-opacity="0.29"/><circle cx="225.5" cy="121.1" r="1.1" fill="#FFFFFF" fill-opacity="0.23"/><circle cx="126.0" cy="222.9" r="1.1" fill="#FFFFFF" fill-opacity="0.39"/><circle cx="778.1" cy="273.5" r="1.0" fill="#FFFFFF" fill-opacity="0.39"/><circle cx="247.6" cy="178.3" r="0.6" fill="#FFFFFF" fill-opacity="0.20"/><circle cx="379.7" cy="251.4" r="1.0" fill="#FFFFFF" fill-opacity="0.24"/><circle cx="4.0" cy="132.1" r="0.8" fill="#FFFFFF" fill-opacity="0.21"/><circle cx="33.3" cy="11.2" r="1.1" fill="#FFFFFF" fill-opacity="0.15"/><circle cx="468.5" cy="264.6" r="2.0" fill="#FFFFFF" fill-opacity="0.29"/><circle cx="572.8" cy="439.5" r="1.3" fill="#FFFFFF" fill-opacity="0.18"/><circle cx="787.8" cy="74.7" r="1.9" fill="#FFFFFF" fill-opacity="0.29"/><circle cx="35.0" cy="417.6" r="2.2" fill="#FFFFFF" fill-opacity="0.28"/><circle cx="587.1" cy="406.1" r="0.9" fill="#FFFFFF" fill-opacity="0.25"/><circle cx="403.5" cy="417.5" r="2.0" fill="#FFFFFF" fill-opacity="0.34"/><circle cx="467.2" cy="446.4" r="1.8" fill="#FFFFFF" fill-opacity="0.30"/><circle cx="184.0" cy="15.6" r="0.8" fill="#FFFFFF" fill-opacity="0.20"/><circle cx="83.9" cy="417.9" r="1.6" fill="#FFFFFF" fill-opacity="0.28"/><circle cx="501.0" cy="340.3" r="1.5" fill="#FFFFFF" fill-opacity="0.08"/><circle cx="638.2" cy="374.1" r="1.5" fill="#FFFFFF" fill-opacity="0.25"/><circle cx="527.4" cy="33.0" r="1.9" fill="#FFFFFF" fill-opacity="0.16"/><circle cx="59.6" cy="132.8" r="1.9" fill="#FFFFFF" fill-opacity="0.15"/><circle cx="591.9" cy="487.9" r="1.5" fill="#FFFFFF" fill-opacity="0.20"/><circle cx="383.2" cy="341.8" r="2.0" fill="#FFFFFF" fill-opacity="0.28"/><circle cx="514.2" cy="38.7" r="0.9" fill="#FFFFFF" fill-opacity="0.16"/><circle cx="594.6" cy="152.2" r="1.6" fill="#FFFFFF" fill-opacity="0.08"/><circle cx="48.5" cy="134.4" r="1.8" fill="#FFFFFF" fill-opacity="0.30"/><circle cx="540.6" cy="145.4" r="1.5" fill="#FFFFFF" fill-opacity="0.23"/><circle cx="373.1" cy="59.3" r="2.2" fill="#FFFFFF" fill-opacity="0.14"/><circle cx="782.5" cy="468.1" r="0.6" fill="#FFFFFF" fill-opacity="0.23"/><circle cx="655.9" cy="484.1" r="1.4" fill="#FFFFFF" fill-opacity="0.17"/><circle cx="167.9" cy="472.8" r="1.0" fill="#FFFFFF" fill-opacity="0.27"/><circle cx="113.4" cy="262.0" r="2.3" fill="#FFFFFF" fill-opacity="0.12"/><circle cx="656.2" cy="254.4" r="2.2" fill="#FFFFFF" fill-opacity="0.31"/><circle cx="185.1" cy="448.9" r="1.5" fill="#FFFFFF" fill-opacity="0.09"/><circle cx="2.9" cy="245.8" r="1.4" fill="#FFFFFF" fill-opacity="0.18"/><circle cx="112.6" cy="172.0" r="1.2" fill="#FFFFFF" fill-opacity="0.35"/><circle cx="1.4" cy="375.4" r="2.1" fill="#FFFFFF" fill-opacity="0.12"/><circle cx="741.1" cy="356.5" r="2.2" fill="#FFFFFF" fill-opacity="0.17"/><circle cx="297.8" cy="196.4" r="2.4" fill="#FFFFFF" fill-opacity="0.27"/><circle cx="288.6" cy="214.0" r="1.1" fill="#FFFFFF" fill-opacity="0.10"/><circle cx="81.4" cy="417.3" r="1.1" fill="#FFFFFF" fill-opacity="0.38"/><circle cx="199.5" cy="132.9" r="1.5" fill="#FFFFFF" fill-opacity="0.14"/><circle cx="298.7" cy="478.1" r="2.2" fill="#FFFFFF" fill-opacity="0.34"/><circle cx="504.7" cy="456.7" r="2.3" fill="#FFFFFF" fill-opacity="0.26"/><circle cx="575.7" cy="24.7" r="1.9" fill="#FFFFFF" fill-opacity="0.22"/><circle cx="602.1" cy="322.2" r="1.1" fill="#FFFFFF" fill-opacity="0.10"/><circle cx="741.4" cy="63.7" r="1.4" fill="#FFFFFF" fill-opacity="0.19"/><circle cx="238.2" cy="369.5" r="2.4" fill="#FFFFFF" fill-opacity="0.16"/><circle cx="524.8" cy="150.4" r="1.6" fill="#FFFFFF" fill-opacity="0.21"/><circle cx="133.9" cy="80.8" r="1.0" fill="#FFFFFF" fill-opacity="0.37"/><circle cx="397.7" cy="110.0" r="2.2" fill="#FFFFFF" fill-opacity="0.40"/>
<g fill="#E63946" fill-opacity="0.85"><rect x="387.2" y="130.0" width="25.6" height="160.0" rx="9.6"/><rect x="352.0" y="182.0" width="96.0" height="25.6" rx="9.6"/></g>
<text x="400.0" y="390.0" text-anchor="middle" font-family="Poppins,Arial,sans-serif" font-weight="700" font-size="45" fill="#FFFFFF" fill-opacity="0.92">The Power of Worship</text>

<rect x="0.5" y="0.5" width="799" height="499" rx="16" fill="none" stroke="#E63946" stroke-opacity="0.18"/>
</svg>